# xmcd
#
# Track frame offsets: 
#        150
#        44052
#        69567
#        112787
#        155087
#        189697
#        222355
#        264445
#
# Disc length: 4158 seconds
#
# Revision: 0
# Processed by: cddbd v1.4PL0 Copyright (c) Steve Scherf et al.
# Submitted via: ExactAudioCopy v0.90b4
#
DISCID=76103c08
DTITLE=Various Artist - Subjob [loopsnoo]
DYEAR=2002
DGENRE=Goa
TTITLE0=OXID8 - Horrizzons
TTITLE1=P. PATERONIS - A Floating Feeling
TTITLE2=ATZTEC - Blow Me
TTITLE3=QUARZ - Engelstrompeten
TTITLE4=DRONE - Sublife Crises
TTITLE5=THE LOOP BANDIT - Aurora Orientalis
TTITLE6=INITIA - Far Beyond (2002 rmx)
TTITLE7=TIMEWARP - Here it comes again
EXTD=
EXTT0=
EXTT1=
EXTT2=
EXTT3=
EXTT4=
EXTT5=
EXTT6=
EXTT7=
PLAYORDER=
